<svg width="38" height="38" viewBox="0 0 38 38" fill="none" xmlns="http://www.w3.org/2000/svg">
<g filter="url(#filter0_d)">
<rect x="4" width="30" height="30" rx="15" fill="white"/>
</g>
<path fill-rule="evenodd" clip-rule="evenodd" d="M14.5 4.57924C11.2239 6.16336 10.2718 9.49578 9.56643 11.9649C9.07521 13.6843 8.70359 14.9851 7.75 14.9852C7.75 15.3671 7.76881 15.7446 7.80555 16.1167H15.5116C15.7581 15.4195 16.4231 14.92 17.2047 14.92C17.9685 14.92 18.6209 15.3971 18.8802 16.0695C19.1395 15.3971 19.792 14.92 20.5558 14.92C21.3374 14.92 22.0023 15.4195 22.2488 16.1167H30.1945C30.2312 15.7446 30.25 15.3671 30.25 14.9852C29.3125 14.9852 29 13.7279 28.5833 12.0516C27.9557 9.52666 27.0918 6.05097 23.5 4.48865V10.4591H21.25V3.84256C20.5701 3.73041 19.8226 3.66992 19 3.66992C18.1758 3.66995 17.4286 3.73727 16.75 3.8615V10.4591H14.5V4.57924ZM19.1194 17.7923C19.4469 18.2284 19.9684 18.5105 20.5558 18.5105C21.1432 18.5105 21.6647 18.2284 21.9922 17.7923H27.5644C27.0882 22.1007 23.4354 25.4518 19 25.4518C14.5646 25.4518 10.9118 22.1007 10.4356 17.7923H15.7683C16.0958 18.2284 16.6173 18.5105 17.2047 18.5105C17.792 18.5105 18.3135 18.2284 18.6411 17.7923H19.1194ZM17.2645 12.879C17.4129 12.8756 17.5482 12.9641 17.6062 13.1008C17.719 13.3664 17.4946 13.6501 17.2093 13.6065C15.9919 13.4205 15.312 13.4377 14.8009 14.5082C14.7304 14.6559 14.5139 14.6679 14.4406 14.5214C14.4124 14.4649 14.4149 14.3973 14.4477 14.3433C15.2024 13.1036 15.8889 12.9111 17.2645 12.879ZM20.6551 12.9022C20.5067 12.8988 20.3714 12.9873 20.3134 13.124C20.2006 13.3896 20.425 13.6733 20.7102 13.6297C21.9277 13.4436 22.6075 13.4609 23.1187 14.5314C23.1892 14.6791 23.4057 14.6911 23.4789 14.5446C23.5072 14.4881 23.5047 14.4205 23.4719 14.3665C22.7171 13.1268 22.0307 12.9343 20.6551 12.9022ZM15.4858 21.612C15.292 21.5195 15.1702 21.3222 15.1702 21.1074C15.1702 20.6853 15.6164 20.4124 15.9991 20.5906C18.4634 21.7383 19.7186 21.7471 22.0049 20.617C22.3808 20.4311 22.8298 20.6975 22.8298 21.1169C22.8298 21.326 22.7117 21.518 22.5232 21.6086C19.7914 22.9208 18.1528 22.8854 15.4858 21.612Z" fill="#757575"/>
<circle cx="17.2046" cy="16.7146" r="0.598404" fill="#757575"/>
<circle cx="20.5557" cy="16.7146" r="0.598404" fill="#757575"/>
<defs>
<filter id="filter0_d" x="0" y="0" width="38" height="38" filterUnits="userSpaceOnUse" color-interpolation-filters="sRGB">
<feFlood flood-opacity="0" result="BackgroundImageFix"/>
<feColorMatrix in="SourceAlpha" type="matrix" values="0 0 0 0 0 0 0 0 0 0 0 0 0 0 0 0 0 0 127 0"/>
<feOffset dy="4"/>
<feGaussianBlur stdDeviation="2"/>
<feColorMatrix type="matrix" values="0 0 0 0 0.458824 0 0 0 0 0.458824 0 0 0 0 0.458824 0 0 0 1 0"/>
<feBlend mode="normal" in2="BackgroundImageFix" result="effect1_dropShadow"/>
<feBlend mode="normal" in="SourceGraphic" in2="effect1_dropShadow" result="shape"/>
</filter>
</defs>
</svg>
