<svg width="38" height="38" viewBox="0 0 38 38" fill="none" xmlns="http://www.w3.org/2000/svg">
<g filter="url(#filter0_dd)">
<rect x="4" width="30" height="30" rx="15" fill="white"/>
</g>
<path d="M18.2228 4.36718C18.6779 4.00586 19.322 4.00586 19.7772 4.36718L29.1825 11.8337C30.1098 12.5698 29.5893 14.0627 28.4053 14.0627H9.59463C8.41068 14.0627 7.89015 12.5698 8.81743 11.8337L18.2228 4.36718Z" fill="#757575"/>
<path d="M26.5 13.7502H11.5V22.5002C11.5 23.1906 12.0596 23.7502 12.75 23.7502H16.5V17.5002C16.5 16.8098 17.0596 16.2502 17.75 16.2502H20.25C20.9403 16.2502 21.5 16.8098 21.5 17.5002V23.7502H25.25C25.9403 23.7502 26.5 23.1906 26.5 22.5002V13.7502Z" fill="#757575"/>
<defs>
<filter id="filter0_dd" x="0" y="0" width="38" height="38" filterUnits="userSpaceOnUse" color-interpolation-filters="sRGB">
<feFlood flood-opacity="0" result="BackgroundImageFix"/>
<feColorMatrix in="SourceAlpha" type="matrix" values="0 0 0 0 0 0 0 0 0 0 0 0 0 0 0 0 0 0 127 0"/>
<feOffset dy="4"/>
<feGaussianBlur stdDeviation="2"/>
<feColorMatrix type="matrix" values="0 0 0 0 0 0 0 0 0 0 0 0 0 0 0 0 0 0 0.25 0"/>
<feBlend mode="normal" in2="BackgroundImageFix" result="effect1_dropShadow"/>
<feColorMatrix in="SourceAlpha" type="matrix" values="0 0 0 0 0 0 0 0 0 0 0 0 0 0 0 0 0 0 127 0"/>
<feOffset dy="4"/>
<feGaussianBlur stdDeviation="2"/>
<feColorMatrix type="matrix" values="0 0 0 0 0 0 0 0 0 0 0 0 0 0 0 0 0 0 0.25 0"/>
<feBlend mode="normal" in2="effect1_dropShadow" result="effect2_dropShadow"/>
<feBlend mode="normal" in="SourceGraphic" in2="effect2_dropShadow" result="shape"/>
</filter>
</defs>
</svg>
